<svg width="14" height="14" viewBox="0 0 14 14" fill="none" xmlns="http://www.w3.org/2000/svg">
<path d="M4.34003 1.26H4.20003C4.27703 1.26 4.34003 1.197 4.34003 1.12V1.26H9.66003V1.12C9.66003 1.197 9.72303 1.26 9.80003 1.26H9.66003V2.52H10.92V1.12C10.92 0.50225 10.4178 0 9.80003 0H4.20003C3.58228 0 3.08003 0.50225 3.08003 1.12V2.52H4.34003V1.26ZM13.16 2.52H0.840029C0.530279 2.52 0.280029 2.77025 0.280029 3.08V3.64C0.280029 3.717 0.343029 3.78 0.420029 3.78H1.47703L1.90928 12.9325C1.93728 13.5293 2.43078 14 3.02753 14H10.9725C11.571 14 12.0628 13.531 12.0908 12.9325L12.523 3.78H13.58C13.657 3.78 13.72 3.717 13.72 3.64V3.08C13.72 2.77025 13.4698 2.52 13.16 2.52ZM10.8378 12.74H3.16228L2.73878 3.78H11.2613L10.8378 12.74Z" fill="#FF5833"/>
</svg>
