<svg width="14" height="14" viewBox="0 0 14 14" fill="none" xmlns="http://www.w3.org/2000/svg">
<path fill-rule="evenodd" clip-rule="evenodd" d="M12.327 3.48882L9.02453 0.173683C8.91426 0.0629984 8.76508 0 8.60826 0H2.08929C1.76342 0 1.5 0.264431 1.5 0.591549V13.4085C1.5 13.7356 1.76342 14 2.08929 14H11.9107C12.2366 14 12.5 13.7356 12.5 13.4085V3.90823C12.5 3.75114 12.4375 3.59974 12.327 3.48882ZM8.47935 1.4735L11.0321 4.03609H8.47935V1.4735ZM2.80134 1.30634V12.6937H11.1987V5.28081H7.98214C7.78515 5.28081 7.59623 5.20226 7.45694 5.06243C7.31765 4.9226 7.2394 4.73296 7.2394 4.53521V1.30634H2.80134ZM6.87723 8.53433H4.05357C3.93181 8.53433 3.83259 8.63393 3.83259 8.75616V9.4956C3.83259 9.61783 3.93181 9.71743 4.05357 9.71743H6.87723C6.999 9.71743 7.09821 9.61783 7.09821 9.4956V8.75616C7.09821 8.63393 6.999 8.53433 6.87723 8.53433ZM3.83259 6.66109V7.40053C3.83259 7.52276 3.93181 7.62236 4.05357 7.62236H9.94643C10.0682 7.62236 10.1674 7.52276 10.1674 7.40053V6.66109C10.1674 6.53886 10.0682 6.43926 9.94643 6.43926H4.05357C3.93181 6.43926 3.83259 6.53886 3.83259 6.66109Z" fill="white"/>
</svg>
