<svg width="78" height="34" viewBox="0 0 78 34" fill="none" xmlns="http://www.w3.org/2000/svg">
<g clip-path="url(#clip0_2083_2285)">
<path fill-rule="evenodd" clip-rule="evenodd" d="M3.33651 33.653L13.6905 20.585L12.0373 20.4246C-0.0223253 19.2542 -0.18615 1.62785 11.8498 0.231262H36.5843V20.585H22.5489L11.8498 33.653H3.33651ZM29.5666 7.05439H12.3518C12.0198 7.05439 11.6901 7.11295 11.3781 7.2274C8.5441 8.26687 8.5326 12.2944 11.3284 13.4338C11.6703 13.573 12.0394 13.6462 12.4082 13.6462H29.5666V7.05439Z" fill="white" stroke="white"/>
<path d="M29.7964 26.136H36.584V33.6531H29.7964V26.136Z" fill="white" stroke="white"/>
<path d="M42.2212 0.115662H67.0263C67.5901 0.115662 68.1517 0.195874 68.6931 0.353375C78.7392 3.27581 78.7383 17.611 68.6752 20.4734C68.145 20.6242 67.5965 20.7007 67.0457 20.7007H49.1238V33.7687H42.2212V13.6463H66.2415C66.4102 13.6463 66.5784 13.6256 66.7422 13.5849C70.0509 12.761 70.0559 8.03947 66.7693 7.13019C66.5885 7.08013 66.4005 7.05444 66.2127 7.05444H42.2212V0.115662Z" fill="white" stroke="white"/>
</g>
<defs>
<clipPath id="clip0_2083_2285">
<rect width="78" height="34" fill="white"/>
</clipPath>
</defs>
</svg>
