<svg width="14" height="14" viewBox="0 0 14 14" fill="none" xmlns="http://www.w3.org/2000/svg">
<g clip-path="url(#clip0_2103_1944)">
<path d="M1.0625 14C0.798611 13.9306 0.572917 13.8021 0.385417 13.6146C0.197917 13.4271 0.0694444 13.2014 0 12.9375L12.9375 0C13.1875 0.0833333 13.4062 0.21875 13.5938 0.40625C13.7812 0.59375 13.9167 0.8125 14 1.0625L1.0625 14ZM0 9.0625V6.9375L6.9375 0H9.0625L0 9.0625ZM0 2.85417V1.5C0 1.08333 0.145833 0.729167 0.4375 0.4375C0.729167 0.145833 1.08333 0 1.5 0H2.85417L0 2.85417ZM10.9375 14L14 10.9375V12.5C14 12.9167 13.8542 13.2708 13.5625 13.5625C13.2708 13.8542 12.9167 14 12.5 14H10.9375ZM4.9375 14L14 4.9375V7.0625L7.0625 14H4.9375Z" fill="white"/>
</g>
<defs>
<clipPath id="clip0_2103_1944">
<rect width="14" height="14" fill="white"/>
</clipPath>
</defs>
</svg>
