<svg width="14" height="14" viewBox="0 0 14 14" fill="none" xmlns="http://www.w3.org/2000/svg">
<path d="M3.88889 10.8889C4.10926 10.8889 4.29398 10.8144 4.44306 10.6653C4.59213 10.5162 4.66667 10.3315 4.66667 10.1111C4.66667 9.89074 4.59213 9.70602 4.44306 9.55694C4.29398 9.40787 4.10926 9.33333 3.88889 9.33333C3.66852 9.33333 3.4838 9.40787 3.33472 9.55694C3.18565 9.70602 3.11111 9.89074 3.11111 10.1111C3.11111 10.3315 3.18565 10.5162 3.33472 10.6653C3.4838 10.8144 3.66852 10.8889 3.88889 10.8889ZM3.88889 7.77778C4.10926 7.77778 4.29398 7.70324 4.44306 7.55417C4.59213 7.40509 4.66667 7.22037 4.66667 7C4.66667 6.77963 4.59213 6.59491 4.44306 6.44583C4.29398 6.29676 4.10926 6.22222 3.88889 6.22222C3.66852 6.22222 3.4838 6.29676 3.33472 6.44583C3.18565 6.59491 3.11111 6.77963 3.11111 7C3.11111 7.22037 3.18565 7.40509 3.33472 7.55417C3.4838 7.70324 3.66852 7.77778 3.88889 7.77778ZM3.88889 4.66667C4.10926 4.66667 4.29398 4.59213 4.44306 4.44306C4.59213 4.29398 4.66667 4.10926 4.66667 3.88889C4.66667 3.66852 4.59213 3.4838 4.44306 3.33472C4.29398 3.18565 4.10926 3.11111 3.88889 3.11111C3.66852 3.11111 3.4838 3.18565 3.33472 3.33472C3.18565 3.4838 3.11111 3.66852 3.11111 3.88889C3.11111 4.10926 3.18565 4.29398 3.33472 4.44306C3.4838 4.59213 3.66852 4.66667 3.88889 4.66667ZM6.22222 10.8889H10.8889V9.33333H6.22222V10.8889ZM6.22222 7.77778H10.8889V6.22222H6.22222V7.77778ZM6.22222 4.66667H10.8889V3.11111H6.22222V4.66667ZM1.55556 14C1.12778 14 0.761574 13.8477 0.456944 13.5431C0.152315 13.2384 0 12.8722 0 12.4444V1.55556C0 1.12778 0.152315 0.761574 0.456944 0.456944C0.761574 0.152315 1.12778 0 1.55556 0H12.4444C12.8722 0 13.2384 0.152315 13.5431 0.456944C13.8477 0.761574 14 1.12778 14 1.55556V12.4444C14 12.8722 13.8477 13.2384 13.5431 13.5431C13.2384 13.8477 12.8722 14 12.4444 14H1.55556ZM1.55556 12.4444H12.4444V1.55556H1.55556V12.4444Z" fill="white"/>
</svg>
