<svg width="14" height="14" viewBox="0 0 14 14" fill="none" xmlns="http://www.w3.org/2000/svg">
<path d="M6.35714 12.2909V7.38182L2.28571 4.98182V9.89091L6.35714 12.2909ZM7.64286 12.2909L11.7143 9.90909V5L7.64286 7.38182V12.2909ZM6.35714 13.8182L1.64286 11.0364C1.43929 10.9166 1.28125 10.7587 1.16875 10.5625C1.05625 10.3665 1 10.1487 1 9.90909V4.09091C1 3.85127 1.05625 3.63345 1.16875 3.43745C1.28125 3.24133 1.43929 3.08339 1.64286 2.96364L6.35714 0.181818C6.56107 0.0606061 6.77577 0 7.00125 0C7.22661 0 7.44048 0.0606061 7.64286 0.181818L12.3571 2.96364C12.5607 3.08339 12.7188 3.24133 12.8313 3.43745C12.9438 3.63345 13 3.85127 13 4.09091V9.90909C13 10.1487 12.9438 10.3665 12.8313 10.5625C12.7188 10.7587 12.5607 10.9166 12.3571 11.0364L7.64286 13.8182C7.43893 13.9394 7.22423 14 6.99875 14C6.77339 14 6.55952 13.9394 6.35714 13.8182ZM9.71429 4.63636L11.1964 3.78182L6.98214 1.32727L5.55357 2.18182L9.71429 4.63636ZM7 6.23636L8.46429 5.38182L4.23214 2.94545L2.80357 3.78182L7 6.23636Z" fill="white"/>
</svg>
