<svg width="14" height="14" viewBox="0 0 14 14" fill="none" xmlns="http://www.w3.org/2000/svg">
<g clip-path="url(#clip0_2103_1903)">
<path d="M3.64987 5.71912C3.0974 5.1201 2.82116 4.4 2.82116 3.55882C2.82116 2.71765 3.0974 1.99755 3.64987 1.39853C4.20235 0.79951 4.8665 0.5 5.64232 0.5C6.41814 0.5 7.08228 0.79951 7.63476 1.39853C8.18724 1.99755 8.46348 2.71765 8.46348 3.55882C8.46348 4.4 8.18724 5.1201 7.63476 5.71912C7.08228 6.31814 6.41814 6.61765 5.64232 6.61765C4.8665 6.61765 4.20235 6.31814 3.64987 5.71912ZM0 12.7353V10.5941C0 10.1735 0.099916 9.77843 0.299748 9.40882C0.49958 9.03922 0.775819 8.75882 1.12846 8.56765C1.72796 8.23627 2.40386 7.95588 3.15617 7.72647C3.90848 7.49706 4.7372 7.38235 5.64232 7.38235H5.88917C5.9597 7.38235 6.03023 7.3951 6.10076 7.42059C6.00672 7.65 5.92737 7.88897 5.86272 8.1375C5.79807 8.38603 5.74811 8.64412 5.71285 8.91177H5.64232C4.80772 8.91177 4.05835 9.02647 3.39421 9.25588C2.73006 9.48529 2.1864 9.71471 1.76322 9.94412C1.65743 10.0078 1.57221 10.0971 1.50756 10.2118C1.44291 10.3265 1.41058 10.4539 1.41058 10.5941V11.2059H5.8539C5.92443 11.4735 6.01847 11.738 6.13602 11.9993C6.25357 12.2605 6.38287 12.5059 6.52393 12.7353H0ZM9.87406 13.5L9.66247 12.3529C9.52141 12.2892 9.38917 12.2223 9.26574 12.1522C9.14232 12.0821 9.01595 11.9961 8.88665 11.8941L7.86398 12.2382L7.15869 10.9382L7.96977 10.1735C7.94626 9.9951 7.93451 9.82941 7.93451 9.67647C7.93451 9.52353 7.94626 9.35784 7.96977 9.17941L7.15869 8.41471L7.86398 7.11471L8.88665 7.45882C9.01595 7.35686 9.14232 7.27083 9.26574 7.20074C9.38917 7.13064 9.52141 7.06373 9.66247 7L9.87406 5.85294H11.2846L11.4962 7C11.6373 7.06373 11.7695 7.13382 11.8929 7.21029C12.0164 7.28677 12.1427 7.38235 12.272 7.49706L13.2947 7.11471L14 8.45294L13.1889 9.21765C13.2124 9.37059 13.2242 9.5299 13.2242 9.69559C13.2242 9.86127 13.2124 10.0206 13.1889 10.1735L14 10.9382L13.2947 12.2382L12.272 11.8941C12.1427 11.9961 12.0164 12.0821 11.8929 12.1522C11.7695 12.2223 11.6373 12.2892 11.4962 12.3529L11.2846 13.5H9.87406ZM11.5756 10.7566C11.8518 10.4571 11.9899 10.0971 11.9899 9.67647C11.9899 9.25588 11.8518 8.89583 11.5756 8.59632C11.2993 8.29681 10.9673 8.14706 10.5793 8.14706C10.1914 8.14706 9.85936 8.29681 9.58312 8.59632C9.30688 8.89583 9.16877 9.25588 9.16877 9.67647C9.16877 10.0971 9.30688 10.4571 9.58312 10.7566C9.85936 11.0561 10.1914 11.2059 10.5793 11.2059C10.9673 11.2059 11.2993 11.0561 11.5756 10.7566ZM6.63854 4.63897C6.91478 4.33946 7.0529 3.97941 7.0529 3.55882C7.0529 3.13824 6.91478 2.77819 6.63854 2.47868C6.3623 2.17917 6.03023 2.02941 5.64232 2.02941C5.25441 2.02941 4.92233 2.17917 4.6461 2.47868C4.36986 2.77819 4.23174 3.13824 4.23174 3.55882C4.23174 3.97941 4.36986 4.33946 4.6461 4.63897C4.92233 4.93848 5.25441 5.08824 5.64232 5.08824C6.03023 5.08824 6.3623 4.93848 6.63854 4.63897Z" fill="white"/>
</g>
<defs>
<clipPath id="clip0_2103_1903">
<rect width="14" height="14" fill="white"/>
</clipPath>
</defs>
</svg>
